<svg xmlns="http://www.w3.org/2000/svg" xmlns:xlink="http://www.w3.org/1999/xlink" version="1.1" x="0px" y="0px" viewBox="0 0 100 125" enable-background="new 0 0 100 100" xml:space="preserve"><g><path d="M80.1,33.1C80.1,33,80,33,80.1,33.1c-0.1-0.1-0.2-0.2-0.3-0.2l-0.1-0.1L51.6,13.1c-0.7-0.5-1.5-0.5-2.2,0L21,32.8l-0.1,0.1   c-0.1,0-0.1,0.1-0.2,0.1c-0.1,0.1-0.1,0.1-0.2,0.2c0,0.1-0.1,0.1-0.1,0.2c-0.1,0.1-0.1,0.2-0.1,0.3c0,0.1,0,0.1-0.1,0.2   c0,0.2-0.1,0.3-0.1,0.5v33.8c0,0.6,0.3,1.2,0.8,1.6l28.3,19.7c0,0,0.1,0,0.1,0.1l0.1,0.1h0.1c0.3,0.1,0.5,0.2,0.8,0.2   c0.2,0,0.4,0,0.5-0.1c0.1,0,0.1,0,0.2-0.1c0.1,0,0.1,0,0.2-0.1l0.1-0.1c0,0,0.1,0,0.1-0.1l28.2-20c0.2-0.2,0.4-0.3,0.5-0.5V33.1z    M48.6,84.2l-24.5-17V38.1l9.3,6.5l15.2,10.6V84.2z M50.5,51.8L33.5,40l-8-5.6l25-17.4l24.9,17.4L50.5,51.8z"/></g><text x="0" y="115" fill="#000000" font-size="5px" font-weight="bold" font-family="'Helvetica Neue', Helvetica, Arial-Unicode, Arial, Sans-serif">Created by Chris Munroe</text><text x="0" y="120" fill="#000000" font-size="5px" font-weight="bold" font-family="'Helvetica Neue', Helvetica, Arial-Unicode, Arial, Sans-serif">from the Noun Project</text></svg>